STARTFONT 2.1
COMMENT
COMMENT Converted from OpenType font "scoreboard.ttf" by "otf2bdf 3.0".
COMMENT
FONT -FreeType-Score Board-Medium-R-Normal--30-300-72-72-P-121-ISO10646-1
SIZE 30 72 72
FONTBOUNDINGBOX 47 34 -1 -6
STARTPROPERTIES 19
FOUNDRY "FreeType"
FAMILY_NAME "Score Board"
WEIGHT_NAME "Medium"
SLANT "R"
SETWIDTH_NAME "Normal"
ADD_STYLE_NAME ""
PIXEL_SIZE 30
POINT_SIZE 300
RESOLUTION_X 72
RESOLUTION_Y 72
SPACING "P"
AVERAGE_WIDTH 121
CHARSET_REGISTRY "ISO10646"
CHARSET_ENCODING "1"
FONT_ASCENT 27
FONT_DESCENT 6
COPYRIGHT "Typeface © Bou Fonts. 2009. All Rights Reserved"
_OTF_FONTFILE "scoreboard.ttf"
_OTF_PSNAME "ScoreBoard"
ENDPROPERTIES
CHARS 240
STARTCHAR 0020
ENCODING 32
SWIDTH 533 0
DWIDTH 16 0
BBX 0 0 0 0
BITMAP
ENDCHAR
STARTCHAR 0021
ENCODING 33
SWIDTH 533 0
DWIDTH 16 0
BBX 2 21 7 0
BITMAP
C0
C0
00
C0
C0
00
C0
C0
00
C0
C0
00
00
C0
C0
00
00
00
00
C0
C0
ENDCHAR
STARTCHAR 0022
ENCODING 34
SWIDTH 500 0
DWIDTH 15 0
BBX 7 5 4 16
BITMAP
C6
C6
00
C6
C6
ENDCHAR
STARTCHAR 0023
ENCODING 35
SWIDTH 500 0
DWIDTH 15 0
BBX 13 21 1 0
BITMAP
18C0
18C0
0000
18C0
18C0
0000
DED8
DED8
0000
18C0
18C0
0000
0000
DED8
DED8
0000
18C0
18C0
0000
18C0
18C0
ENDCHAR
STARTCHAR 0024
ENCODING 36
SWIDTH 500 0
DWIDTH 15 0
BBX 13 21 1 0
BITMAP
0600
0600
0000
1ED8
1ED8
0000
C000
C000
0000
1EC0
1EC0
0000
0000
0018
0018
0000
DEC0
DEC0
0000
0600
0600
ENDCHAR
STARTCHAR 0025
ENCODING 37
SWIDTH 500 0
DWIDTH 15 0
BBX 13 21 1 0
BITMAP
D800
D800
0000
D818
D818
0000
00C0
00C0
0000
0600
0600
0000
0000
1800
1800
0000
C0D8
C0D8
0000
00D8
00D8
ENDCHAR
STARTCHAR 0026
ENCODING 38
SWIDTH 500 0
DWIDTH 15 0
BBX 13 21 1 0
BITMAP
1800
1800
0000
C600
C600
0000
C600
C600
0000
1800
1800
0000
0000
C618
C618
0000
C0C0
C0C0
0000
1E18
1E18
ENDCHAR
STARTCHAR 0027
ENCODING 39
SWIDTH 533 0
DWIDTH 16 0
BBX 5 11 7 10
BITMAP
D8
D8
00
D8
D8
00
18
18
00
C0
C0
ENDCHAR
STARTCHAR 0028
ENCODING 40
SWIDTH 533 0
DWIDTH 16 0
BBX 5 21 4 0
BITMAP
18
18
00
C0
C0
00
C0
C0
00
C0
C0
00
00
C0
C0
00
C0
C0
00
18
18
ENDCHAR
STARTCHAR 0029
ENCODING 41
SWIDTH 533 0
DWIDTH 16 0
BBX 5 21 7 0
BITMAP
C0
C0
00
18
18
00
18
18
00
18
18
00
00
18
18
00
18
18
00
C0
C0
ENDCHAR
STARTCHAR 002A
ENCODING 42
SWIDTH 533 0
DWIDTH 16 0
BBX 8 8 4 13
BITMAP
C2
C7
02
18
18
00
C2
C7
ENDCHAR
STARTCHAR 002B
ENCODING 43
SWIDTH 500 0
DWIDTH 15 0
BBX 13 15 1 3
BITMAP
0600
0600
0000
0000
0600
0600
0000
DED8
DED8
0000
0600
0600
0000
0600
0600
ENDCHAR
STARTCHAR 002C
ENCODING 44
SWIDTH 533 0
DWIDTH 16 0
BBX 5 12 7 0
BITMAP
D8
D8
00
00
D8
D8
00
18
18
00
C0
C0
ENDCHAR
STARTCHAR 002D
ENCODING 45
SWIDTH 533 0
DWIDTH 16 0
BBX 8 3 4 9
BITMAP
02
DF
DA
ENDCHAR
STARTCHAR 002E
ENCODING 46
SWIDTH 533 0
DWIDTH 16 0
BBX 5 5 7 1
BITMAP
D8
D8
00
D8
D8
ENDCHAR
STARTCHAR 002F
ENCODING 47
SWIDTH 500 0
DWIDTH 15 0
BBX 13 15 1 3
BITMAP
0018
0018
0000
0000
00C0
00C0
0000
0600
0600
0000
1800
1800
0000
C000
C000
ENDCHAR
STARTCHAR 0030
ENCODING 48
SWIDTH 500 0
DWIDTH 15 0
BBX 13 21 1 0
BITMAP
1EC0
1EC0
0000
C018
C018
0000
C018
C018
0000
C018
C018
0000
0000
C018
C018
0000
C018
C018
0000
1EC0
1EC0
ENDCHAR
STARTCHAR 0031
ENCODING 49
SWIDTH 533 0
DWIDTH 16 0
BBX 2 21 7 0
BITMAP
C0
C0
00
C0
C0
00
C0
C0
00
C0
C0
00
00
C0
C0
00
C0
C0
00
C0
C0
ENDCHAR
STARTCHAR 0032
ENCODING 50
SWIDTH 500 0
DWIDTH 15 0
BBX 13 21 1 0
BITMAP
DEC0
DEC0
0000
0018
0018
0000
0018
0018
0000
1EC0
1EC0
0000
0000
C000
C000
0000
C000
C000
0000
DED8
DED8
ENDCHAR
STARTCHAR 0033
ENCODING 51
SWIDTH 500 0
DWIDTH 15 0
BBX 13 21 1 0
BITMAP
DEC0
DEC0
0000
0018
0018
0000
0018
0018
0000
DEC0
DEC0
0000
0000
0018
0018
0000
0018
0018
0000
DEC0
DEC0
ENDCHAR
STARTCHAR 0034
ENCODING 52
SWIDTH 500 0
DWIDTH 15 0
BBX 13 21 1 0
BITMAP
C018
C018
0000
C018
C018
0000
C018
C018
0000
DED8
DED8
0000
0000
0018
0018
0000
0018
0018
0000
0018
0018
ENDCHAR
STARTCHAR 0035
ENCODING 53
SWIDTH 500 0
DWIDTH 15 0
BBX 13 21 1 0
BITMAP
DED8
DED8
0000
C000
C000
0000
C000
C000
0000
DEC0
DEC0
0000
0000
0018
0018
0000
0018
0018
0000
DEC0
DEC0
ENDCHAR
STARTCHAR 0036
ENCODING 54
SWIDTH 500 0
DWIDTH 15 0
BBX 13 21 1 0
BITMAP
1ED8
1ED8
0000
C000
C000
0000
C000
C000
0000
DEC0
DEC0
0000
0000
C018
C018
0000
C018
C018
0000
1EC0
1EC0
ENDCHAR
STARTCHAR 0037
ENCODING 55
SWIDTH 500 0
DWIDTH 15 0
BBX 13 21 1 0
BITMAP
DED8
DED8
0000
0018
0018
0000
0018
0018
0000
00C0
00C0
0000
0000
0600
0600
0000
1800
1800
0000
C000
C000
ENDCHAR
STARTCHAR 0038
ENCODING 56
SWIDTH 500 0
DWIDTH 15 0
BBX 13 21 1 0
BITMAP
1EC0
1EC0
0000
C018
C018
0000
C018
C018
0000
1EC0
1EC0
0000
0000
C018
C018
0000
C018
C018
0000
1EC0
1EC0
ENDCHAR
STARTCHAR 0039
ENCODING 57
SWIDTH 500 0
DWIDTH 15 0
BBX 13 21 1 0
BITMAP
1EC0
1EC0
0000
C018
C018
0000
C018
C018
0000
1ED8
1ED8
0000
0000
0018
0018
0000
0018
0018
0000
DEC0
DEC0
ENDCHAR
STARTCHAR 003A
ENCODING 58
SWIDTH 533 0
DWIDTH 16 0
BBX 2 8 7 7
BITMAP
C0
C0
00
00
00
00
C0
C0
ENDCHAR
STARTCHAR 003B
ENCODING 59
SWIDTH 533 0
DWIDTH 16 0
BBX 5 12 4 3
BITMAP
18
18
00
00
00
00
00
18
18
00
C0
C0
ENDCHAR
STARTCHAR 003C
ENCODING 60
SWIDTH 533 0
DWIDTH 16 0
BBX 8 15 4 3
BITMAP
02
07
02
00
18
18
00
C0
C0
00
18
18
02
07
02
ENDCHAR
STARTCHAR 003D
ENCODING 61
SWIDTH 500 0
DWIDTH 15 0
BBX 13 8 1 7
BITMAP
DED8
DED8
0000
0000
0000
0000
DED8
DED8
ENDCHAR
STARTCHAR 003E
ENCODING 62
SWIDTH 533 0
DWIDTH 16 0
BBX 8 15 4 3
BITMAP
C0
C0
00
00
18
18
02
07
02
00
18
18
00
C0
C0
ENDCHAR
STARTCHAR 003F
ENCODING 63
SWIDTH 500 0
DWIDTH 15 0
BBX 13 21 1 0
BITMAP
1EC0
1EC0
0000
C018
C018
0000
0018
0018
0000
00C0
00C0
0000
0000
0600
0600
0000
0000
0000
0000
0600
0600
ENDCHAR
STARTCHAR 0040
ENCODING 64
SWIDTH 500 0
DWIDTH 15 0
BBX 13 21 1 0
BITMAP
1EC0
1EC0
0000
C018
C018
0000
C0D8
C0D8
0000
C618
C618
0000
0000
C0D8
C0D8
0000
C000
C000
0000
1ED8
1ED8
ENDCHAR
STARTCHAR 0041
ENCODING 65
SWIDTH 500 0
DWIDTH 15 0
BBX 13 21 1 0
BITMAP
1EC0
1EC0
0000
C018
C018
0000
C018
C018
0000
DED8
DED8
0000
0000
C018
C018
0000
C018
C018
0000
C018
C018
ENDCHAR
STARTCHAR 0042
ENCODING 66
SWIDTH 500 0
DWIDTH 15 0
BBX 13 21 1 0
BITMAP
DEC0
DEC0
0000
C018
C018
0000
C018
C018
0000
DEC0
DEC0
0000
0000
C018
C018
0000
C018
C018
0000
DEC0
DEC0
ENDCHAR
STARTCHAR 0043
ENCODING 67
SWIDTH 500 0
DWIDTH 15 0
BBX 13 21 1 0
BITMAP
1EC0
1EC0
0000
C018
C018
0000
C000
C000
0000
C000
C000
0000
0000
C000
C000
0000
C018
C018
0000
1EC0
1EC0
ENDCHAR
STARTCHAR 0044
ENCODING 68
SWIDTH 500 0
DWIDTH 15 0
BBX 13 21 1 0
BITMAP
DEC0
DEC0
0000
C018
C018
0000
C018
C018
0000
C018
C018
0000
0000
C018
C018
0000
C018
C018
0000
DEC0
DEC0
ENDCHAR
STARTCHAR 0045
ENCODING 69
SWIDTH 500 0
DWIDTH 15 0
BBX 13 21 1 0
BITMAP
DED8
DED8
0000
C000
C000
0000
C000
C000
0000
DEC0
DEC0
0000
0000
C000
C000
0000
C000
C000
0000
DED8
DED8
ENDCHAR
STARTCHAR 0046
ENCODING 70
SWIDTH 500 0
DWIDTH 15 0
BBX 13 21 1 0
BITMAP
DED8
DED8
0000
C000
C000
0000
C000
C000
0000
DEC0
DEC0
0000
0000
C000
C000
0000
C000
C000
0000
C000
C000
ENDCHAR
STARTCHAR 0047
ENCODING 71
SWIDTH 500 0
DWIDTH 15 0
BBX 13 21 1 0
BITMAP
1EC0
1EC0
0000
C018
C018
0000
C000
C000
0000
C6D8
C6D8
0000
0000
C018
C018
0000
C018
C018
0000
1EC0
1EC0
ENDCHAR
STARTCHAR 0048
ENCODING 72
SWIDTH 500 0
DWIDTH 15 0
BBX 13 21 1 0
BITMAP
C018
C018
0000
C018
C018
0000
C018
C018
0000
DED8
DED8
0000
0000
C018
C018
0000
C018
C018
0000
C018
C018
ENDCHAR
STARTCHAR 0049
ENCODING 73
SWIDTH 533 0
DWIDTH 16 0
BBX 2 21 7 0
BITMAP
C0
C0
00
C0
C0
00
C0
C0
00
C0
C0
00
00
C0
C0
00
C0
C0
00
C0
C0
ENDCHAR
STARTCHAR 004A
ENCODING 74
SWIDTH 500 0
DWIDTH 15 0
BBX 13 21 1 0
BITMAP
0018
0018
0000
0018
0018
0000
0018
0018
0000
0018
0018
0000
0000
C018
C018
0000
C018
C018
0000
1EC0
1EC0
ENDCHAR
STARTCHAR 004B
ENCODING 75
SWIDTH 500 0
DWIDTH 15 0
BBX 13 21 1 0
BITMAP
C018
C018
0000
C0C0
C0C0
0000
C600
C600
0000
D800
D800
0000
0000
C600
C600
0000
C0C0
C0C0
0000
C018
C018
ENDCHAR
STARTCHAR 004C
ENCODING 76
SWIDTH 500 0
DWIDTH 15 0
BBX 13 21 1 0
BITMAP
C000
C000
0000
C000
C000
0000
C000
C000
0000
C000
C000
0000
0000
C000
C000
0000
C000
C000
0000
DED8
DED8
ENDCHAR
STARTCHAR 004D
ENCODING 77
SWIDTH 500 0
DWIDTH 15 0
BBX 13 21 1 0
BITMAP
C018
C018
0000
D8D8
D8D8
0000
C618
C618
0000
C618
C618
0000
0000
C018
C018
0000
C018
C018
0000
C018
C018
ENDCHAR
STARTCHAR 004E
ENCODING 78
SWIDTH 500 0
DWIDTH 15 0
BBX 13 21 1 0
BITMAP
C018
C018
0000
D818
D818
0000
C618
C618
0000
C0D8
C0D8
0000
0000
C018
C018
0000
C018
C018
0000
C018
C018
ENDCHAR
STARTCHAR 004F
ENCODING 79
SWIDTH 500 0
DWIDTH 15 0
BBX 13 21 1 0
BITMAP
1EC0
1EC0
0000
C018
C018
0000
C018
C018
0000
C018
C018
0000
0000
C018
C018
0000
C018
C018
0000
1EC0
1EC0
ENDCHAR
STARTCHAR 0050
ENCODING 80
SWIDTH 500 0
DWIDTH 15 0
BBX 13 21 1 0
BITMAP
DEC0
DEC0
0000
C018
C018
0000
C018
C018
0000
DEC0
DEC0
0000
0000
C000
C000
0000
C000
C000
0000
C000
C000
ENDCHAR
STARTCHAR 0051
ENCODING 81
SWIDTH 500 0
DWIDTH 15 0
BBX 13 21 1 0
BITMAP
1EC0
1EC0
0000
C018
C018
0000
C018
C018
0000
C018
C018
0000
0000
C618
C618
0000
C0C0
C0C0
0000
1E18
1E18
ENDCHAR
STARTCHAR 0052
ENCODING 82
SWIDTH 500 0
DWIDTH 15 0
BBX 13 21 1 0
BITMAP
DEC0
DEC0
0000
C018
C018
0000
C018
C018
0000
DEC0
DEC0
0000
0000
C600
C600
0000
C0C0
C0C0
0000
C018
C018
ENDCHAR
STARTCHAR 0053
ENCODING 83
SWIDTH 500 0
DWIDTH 15 0
BBX 13 21 1 0
BITMAP
1EC0
1EC0
0000
C018
C018
0000
C000
C000
0000
1EC0
1EC0
0000
0000
0018
0018
0000
C018
C018
0000
1EC0
1EC0
ENDCHAR
STARTCHAR 0054
ENCODING 84
SWIDTH 500 0
DWIDTH 15 0
BBX 13 21 1 0
BITMAP
DED8
DED8
0000
0600
0600
0000
0600
0600
0000
0600
0600
0000
0000
0600
0600
0000
0600
0600
0000
0600
0600
ENDCHAR
STARTCHAR 0055
ENCODING 85
SWIDTH 500 0
DWIDTH 15 0
BBX 13 21 1 0
BITMAP
C018
C018
0000
C018
C018
0000
C018
C018
0000
C018
C018
0000
0000
C018
C018
0000
C018
C018
0000
1EC0
1EC0
ENDCHAR
STARTCHAR 0056
ENCODING 86
SWIDTH 500 0
DWIDTH 15 0
BBX 13 21 1 0
BITMAP
C018
C018
0000
C018
C018
0000
C018
C018
0000
18C0
18C0
0000
0000
18C0
18C0
0000
0600
0600
0000
0600
0600
ENDCHAR
STARTCHAR 0057
ENCODING 87
SWIDTH 500 0
DWIDTH 15 0
BBX 13 21 1 0
BITMAP
C018
C018
0000
C018
C018
0000
C018
C018
0000
C618
C618
0000
0000
C618
C618
0000
D8D8
D8D8
0000
C018
C018
ENDCHAR
STARTCHAR 0058
ENCODING 88
SWIDTH 500 0
DWIDTH 15 0
BBX 13 21 1 0
BITMAP
C018
C018
0000
C018
C018
0000
18C0
18C0
0000
0600
0600
0000
0000
18C0
18C0
0000
C018
C018
0000
C018
C018
ENDCHAR
STARTCHAR 0059
ENCODING 89
SWIDTH 500 0
DWIDTH 15 0
BBX 13 21 1 0
BITMAP
C018
C018
0000
C018
C018
0000
C018
C018
0000
18C0
18C0
0000
0000
0600
0600
0000
0600
0600
0000
0600
0600
ENDCHAR
STARTCHAR 005A
ENCODING 90
SWIDTH 500 0
DWIDTH 15 0
BBX 13 21 1 0
BITMAP
DED8
DED8
0000
0018
0018
0000
00C0
00C0
0000
0600
0600
0000
0000
1800
1800
0000
C000
C000
0000
DED8
DED8
ENDCHAR
STARTCHAR 005B
ENCODING 91
SWIDTH 533 0
DWIDTH 16 0
BBX 5 21 4 0
BITMAP
D8
D8
00
C0
C0
00
C0
C0
00
C0
C0
00
00
C0
C0
00
C0
C0
00
D8
D8
ENDCHAR
STARTCHAR 005C
ENCODING 92
SWIDTH 500 0
DWIDTH 15 0
BBX 13 15 1 3
BITMAP
C000
C000
0000
0000
1800
1800
0000
0600
0600
0000
00C0
00C0
0000
0018
0018
ENDCHAR
STARTCHAR 005D
ENCODING 93
SWIDTH 533 0
DWIDTH 16 0
BBX 5 21 7 0
BITMAP
D8
D8
00
18
18
00
18
18
00
18
18
00
00
18
18
00
18
18
00
D8
D8
ENDCHAR
STARTCHAR 005E
ENCODING 94
SWIDTH 500 0
DWIDTH 15 0
BBX 13 8 1 13
BITMAP
0600
0600
0000
18C0
18C0
0000
C018
C018
ENDCHAR
STARTCHAR 005F
ENCODING 95
SWIDTH 500 0
DWIDTH 15 0
BBX 13 2 1 1
BITMAP
DED8
DED8
ENDCHAR
STARTCHAR 0060
ENCODING 96
SWIDTH 533 0
DWIDTH 16 0
BBX 5 5 4 23
BITMAP
C0
C0
00
18
18
ENDCHAR
STARTCHAR 0061
ENCODING 97
SWIDTH 500 0
DWIDTH 15 0
BBX 13 21 1 0
BITMAP
1EC0
1EC0
0000
C018
C018
0000
C018
C018
0000
DED8
DED8
0000
0000
C018
C018
0000
C018
C018
0000
C018
C018
ENDCHAR
STARTCHAR 0062
ENCODING 98
SWIDTH 500 0
DWIDTH 15 0
BBX 13 21 1 0
BITMAP
DEC0
DEC0
0000
C018
C018
0000
C018
C018
0000
DEC0
DEC0
0000
0000
C018
C018
0000
C018
C018
0000
DEC0
DEC0
ENDCHAR
STARTCHAR 0063
ENCODING 99
SWIDTH 500 0
DWIDTH 15 0
BBX 13 21 1 0
BITMAP
1EC0
1EC0
0000
C018
C018
0000
C000
C000
0000
C000
C000
0000
0000
C000
C000
0000
C018
C018
0000
1EC0
1EC0
ENDCHAR
STARTCHAR 0064
ENCODING 100
SWIDTH 500 0
DWIDTH 15 0
BBX 13 21 1 0
BITMAP
DEC0
DEC0
0000
C018
C018
0000
C018
C018
0000
C018
C018
0000
0000
C018
C018
0000
C018
C018
0000
DEC0
DEC0
ENDCHAR
STARTCHAR 0065
ENCODING 101
SWIDTH 500 0
DWIDTH 15 0
BBX 13 21 1 0
BITMAP
DED8
DED8
0000
C000
C000
0000
C000
C000
0000
DEC0
DEC0
0000
0000
C000
C000
0000
C000
C000
0000
DED8
DED8
ENDCHAR
STARTCHAR 0066
ENCODING 102
SWIDTH 500 0
DWIDTH 15 0
BBX 13 21 1 0
BITMAP
DED8
DED8
0000
C000
C000
0000
C000
C000
0000
DEC0
DEC0
0000
0000
C000
C000
0000
C000
C000
0000
C000
C000
ENDCHAR
STARTCHAR 0067
ENCODING 103
SWIDTH 500 0
DWIDTH 15 0
BBX 13 21 1 0
BITMAP
1EC0
1EC0
0000
C018
C018
0000
C000
C000
0000
C6D8
C6D8
0000
0000
C018
C018
0000
C018
C018
0000
1EC0
1EC0
ENDCHAR
STARTCHAR 0068
ENCODING 104
SWIDTH 500 0
DWIDTH 15 0
BBX 13 21 1 0
BITMAP
C018
C018
0000
C018
C018
0000
C018
C018
0000
DED8
DED8
0000
0000
C018
C018
0000
C018
C018
0000
C018
C018
ENDCHAR
STARTCHAR 0069
ENCODING 105
SWIDTH 533 0
DWIDTH 16 0
BBX 2 21 7 0
BITMAP
C0
C0
00
C0
C0
00
C0
C0
00
C0
C0
00
00
C0
C0
00
C0
C0
00
C0
C0
ENDCHAR
STARTCHAR 006A
ENCODING 106
SWIDTH 500 0
DWIDTH 15 0
BBX 13 21 1 0
BITMAP
0018
0018
0000
0018
0018
0000
0018
0018
0000
0018
0018
0000
0000
C018
C018
0000
C018
C018
0000
1EC0
1EC0
ENDCHAR
STARTCHAR 006B
ENCODING 107
SWIDTH 500 0
DWIDTH 15 0
BBX 13 21 1 0
BITMAP
C018
C018
0000
C0C0
C0C0
0000
C600
C600
0000
D800
D800
0000
0000
C600
C600
0000
C0C0
C0C0
0000
C018
C018
ENDCHAR
STARTCHAR 006C
ENCODING 108
SWIDTH 500 0
DWIDTH 15 0
BBX 13 21 1 0
BITMAP
C000
C000
0000
C000
C000
0000
C000
C000
0000
C000
C000
0000
0000
C000
C000
0000
C000
C000
0000
DED8
DED8
ENDCHAR
STARTCHAR 006D
ENCODING 109
SWIDTH 500 0
DWIDTH 15 0
BBX 13 21 1 0
BITMAP
C018
C018
0000
D8D8
D8D8
0000
C618
C618
0000
C618
C618
0000
0000
C018
C018
0000
C018
C018
0000
C018
C018
ENDCHAR
STARTCHAR 006E
ENCODING 110
SWIDTH 500 0
DWIDTH 15 0
BBX 13 21 1 0
BITMAP
C018
C018
0000
D818
D818
0000
C618
C618
0000
C0D8
C0D8
0000
0000
C018
C018
0000
C018
C018
0000
C018
C018
ENDCHAR
STARTCHAR 006F
ENCODING 111
SWIDTH 500 0
DWIDTH 15 0
BBX 13 21 1 0
BITMAP
1EC0
1EC0
0000
C018
C018
0000
C018
C018
0000
C018
C018
0000
0000
C018
C018
0000
C018
C018
0000
1EC0
1EC0
ENDCHAR
STARTCHAR 0070
ENCODING 112
SWIDTH 500 0
DWIDTH 15 0
BBX 13 21 1 0
BITMAP
DEC0
DEC0
0000
C018
C018
0000
C018
C018
0000
DEC0
DEC0
0000
0000
C000
C000
0000
C000
C000
0000
C000
C000
ENDCHAR
STARTCHAR 0071
ENCODING 113
SWIDTH 500 0
DWIDTH 15 0
BBX 13 21 1 0
BITMAP
1EC0
1EC0
0000
C018
C018
0000
C018
C018
0000
C018
C018
0000
0000
C618
C618
0000
C0C0
C0C0
0000
1E18
1E18
ENDCHAR
STARTCHAR 0072
ENCODING 114
SWIDTH 500 0
DWIDTH 15 0
BBX 13 21 1 0
BITMAP
DEC0
DEC0
0000
C018
C018
0000
C018
C018
0000
DEC0
DEC0
0000
0000
C600
C600
0000
C0C0
C0C0
0000
C018
C018
ENDCHAR
STARTCHAR 0073
ENCODING 115
SWIDTH 500 0
DWIDTH 15 0
BBX 13 21 1 0
BITMAP
1EC0
1EC0
0000
C018
C018
0000
C000
C000
0000
1EC0
1EC0
0000
0000
0018
0018
0000
C018
C018
0000
1EC0
1EC0
ENDCHAR
STARTCHAR 0074
ENCODING 116
SWIDTH 500 0
DWIDTH 15 0
BBX 13 21 1 0
BITMAP
DED8
DED8
0000
0600
0600
0000
0600
0600
0000
0600
0600
0000
0000
0600
0600
0000
0600
0600
0000
0600
0600
ENDCHAR
STARTCHAR 0075
ENCODING 117
SWIDTH 500 0
DWIDTH 15 0
BBX 13 21 1 0
BITMAP
C018
C018
0000
C018
C018
0000
C018
C018
0000
C018
C018
0000
0000
C018
C018
0000
C018
C018
0000
1EC0
1EC0
ENDCHAR
STARTCHAR 0076
ENCODING 118
SWIDTH 500 0
DWIDTH 15 0
BBX 13 21 1 0
BITMAP
C018
C018
0000
C018
C018
0000
C018
C018
0000
18C0
18C0
0000
0000
18C0
18C0
0000
0600
0600
0000
0600
0600
ENDCHAR
STARTCHAR 0077
ENCODING 119
SWIDTH 500 0
DWIDTH 15 0
BBX 13 21 1 0
BITMAP
C018
C018
0000
C018
C018
0000
C018
C018
0000
C618
C618
0000
0000
C618
C618
0000
D8D8
D8D8
0000
C018
C018
ENDCHAR
STARTCHAR 0078
ENCODING 120
SWIDTH 500 0
DWIDTH 15 0
BBX 13 21 1 0
BITMAP
C018
C018
0000
C018
C018
0000
18C0
18C0
0000
0600
0600
0000
0000
18C0
18C0
0000
C018
C018
0000
C018
C018
ENDCHAR
STARTCHAR 0079
ENCODING 121
SWIDTH 500 0
DWIDTH 15 0
BBX 13 21 1 0
BITMAP
C018
C018
0000
C018
C018
0000
C018
C018
0000
18C0
18C0
0000
0000
0600
0600
0000
0600
0600
0000
0600
0600
ENDCHAR
STARTCHAR 007A
ENCODING 122
SWIDTH 500 0
DWIDTH 15 0
BBX 13 21 1 0
BITMAP
DED8
DED8
0000
0018
0018
0000
00C0
00C0
0000
0600
0600
0000
0000
1800
1800
0000
C000
C000
0000
DED8
DED8
ENDCHAR
STARTCHAR 007B
ENCODING 123
SWIDTH 500 0
DWIDTH 15 0
BBX 8 21 1 0
BITMAP
02
07
02
18
18
00
18
18
00
C0
C0
00
00
18
18
00
18
18
02
07
02
ENDCHAR
STARTCHAR 007C
ENCODING 124
SWIDTH 533 0
DWIDTH 16 0
BBX 2 21 7 0
BITMAP
C0
C0
00
C0
C0
00
C0
C0
00
C0
C0
00
00
C0
C0
00
C0
C0
00
C0
C0
ENDCHAR
STARTCHAR 007D
ENCODING 125
SWIDTH 533 0
DWIDTH 16 0
BBX 8 21 7 0
BITMAP
C0
C0
00
18
18
00
18
18
00
02
07
02
00
18
18
00
18
18
00
C0
C0
ENDCHAR
STARTCHAR 007E
ENCODING 126
SWIDTH 500 0
DWIDTH 15 0
BBX 13 5 1 7
BITMAP
1E18
1E18
0000
C0C0
C0C0
ENDCHAR
STARTCHAR 00A0
ENCODING 160
SWIDTH 533 0
DWIDTH 16 0
BBX 0 0 0 0
BITMAP
ENDCHAR
STARTCHAR 00A1
ENCODING 161
SWIDTH 533 0
DWIDTH 16 0
BBX 2 21 7 0
BITMAP
C0
C0
00
00
00
00
C0
C0
00
C0
C0
00
00
C0
C0
00
C0
C0
00
C0
C0
ENDCHAR
STARTCHAR 00A2
ENCODING 162
SWIDTH 500 0
DWIDTH 15 0
BBX 13 21 1 0
BITMAP
0600
0600
0000
1EC0
1EC0
0000
C018
C018
0000
C000
C000
0000
0000
C018
C018
0000
1EC0
1EC0
0000
0600
0600
ENDCHAR
STARTCHAR 00A3
ENCODING 163
SWIDTH 500 0
DWIDTH 15 0
BBX 13 21 1 0
BITMAP
06C0
06C0
0000
1818
1818
0000
1800
1800
0000
DE00
DE00
0000
0000
1800
1800
0000
1800
1800
0000
DED8
DED8
ENDCHAR
STARTCHAR 00A4
ENCODING 164
SWIDTH 500 0
DWIDTH 15 0
BBX 12 12 2 5
BITMAP
4020
EE70
7FE0
30C0
6040
6060
6060
6060
30C0
7FE0
EF70
4020
ENDCHAR
STARTCHAR 00A5
ENCODING 165
SWIDTH 500 0
DWIDTH 15 0
BBX 13 21 1 0
BITMAP
C018
C018
0000
C018
C018
0000
C018
C018
0000
18C0
18C0
0000
0000
0600
0600
0000
1EC0
1EC0
0000
0600
0600
ENDCHAR
STARTCHAR 00A6
ENCODING 166
SWIDTH 533 0
DWIDTH 16 0
BBX 2 21 7 0
BITMAP
C0
C0
00
C0
C0
00
C0
C0
00
00
00
00
00
C0
C0
00
C0
C0
00
C0
C0
ENDCHAR
STARTCHAR 00A7
ENCODING 167
SWIDTH 533 0
DWIDTH 16 0
BBX 10 27 3 -6
BITMAP
3F80
6180
C080
C080
E000
F000
F800
7E00
3F80
0FC0
37C0
61C0
C0C0
C0C0
E0C0
F180
7F00
7F00
1F80
07C0
03C0
01C0
00C0
80C0
81C0
C380
FE00
ENDCHAR
STARTCHAR 00A8
ENCODING 168
SWIDTH 500 0
DWIDTH 15 0
BBX 7 2 4 26
BITMAP
C6
C6
ENDCHAR
STARTCHAR 00A9
ENCODING 169
SWIDTH 500 0
DWIDTH 15 0
BBX 13 21 1 0
BITMAP
1EC0
1EC0
0000
C618
C618
0000
D8D8
D8D8
0000
D818
D818
0000
0000
D8D8
D8D8
0000
C618
C618
0000
1EC0
1EC0
ENDCHAR
STARTCHAR 00AA
ENCODING 170
SWIDTH 366 0
DWIDTH 11 0
BBX 8 12 2 8
BITMAP
74
04
81
00
81
04
F5
00
81
00
81
81
ENDCHAR
STARTCHAR 00AB
ENCODING 171
SWIDTH 733 0
DWIDTH 22 0
BBX 14 15 4 3
BITMAP
060C
060C
0200
0000
1830
1830
0100
C180
C180
0000
1830
1830
0200
060C
060C
ENDCHAR
STARTCHAR 00AC
ENCODING 172
SWIDTH 466 0
DWIDTH 14 0
BBX 12 7 1 4
BITMAP
FFF0
0010
0010
0010
0010
0010
0010
ENDCHAR
STARTCHAR 00AD
ENCODING 173
SWIDTH 533 0
DWIDTH 16 0
BBX 8 3 4 9
BITMAP
02
DF
DA
ENDCHAR
STARTCHAR 00AE
ENCODING 174
SWIDTH 500 0
DWIDTH 15 0
BBX 13 21 1 0
BITMAP
1EC0
1EC0
0000
DE18
DE18
0000
D8D8
D8D8
0000
DE18
DE18
0000
0000
D8D8
D8D8
0000
D8D8
D8D8
0000
1EC0
1EC0
ENDCHAR
STARTCHAR 00AF
ENCODING 175
SWIDTH 533 0
DWIDTH 16 0
BBX 8 3 4 22
BITMAP
02
DF
DA
ENDCHAR
STARTCHAR 00B0
ENCODING 176
SWIDTH 333 0
DWIDTH 10 0
BBX 8 8 1 13
BITMAP
3C
42
81
81
81
81
42
3C
ENDCHAR
STARTCHAR 00B1
ENCODING 177
SWIDTH 500 0
DWIDTH 15 0
BBX 13 18 1 0
BITMAP
0600
0600
0000
0600
0600
0000
DED8
DED8
0000
0000
0600
0600
0000
0600
0600
0000
DED8
DED8
ENDCHAR
STARTCHAR 00B2
ENCODING 178
SWIDTH 433 0
DWIDTH 13 0
BBX 9 13 2 8
BITMAP
FF00
FF00
0180
0080
0180
3F00
3F00
E000
E000
4000
E000
FF80
FF80
ENDCHAR
STARTCHAR 00B3
ENCODING 179
SWIDTH 433 0
DWIDTH 13 0
BBX 9 13 2 8
BITMAP
7E00
FE00
0180
0080
0180
7E00
FE00
0180
0180
0080
0180
FE00
FE00
ENDCHAR
STARTCHAR 00B4
ENCODING 180
SWIDTH 533 0
DWIDTH 16 0
BBX 5 5 7 23
BITMAP
18
18
00
C0
C0
ENDCHAR
STARTCHAR 00B5
ENCODING 181
SWIDTH 500 0
DWIDTH 15 0
BBX 13 21 1 -6
BITMAP
C018
C018
0000
C018
C018
0000
0000
C018
C018
0000
C018
C018
4000
DEC0
DEC0
4000
C000
C000
0000
C000
C000
ENDCHAR
STARTCHAR 00B6
ENCODING 182
SWIDTH 500 0
DWIDTH 15 0
BBX 12 21 1 0
BITMAP
1FF0
3E20
7E20
7E20
FE20
FE20
FE20
7E20
3E20
1E20
0220
0220
0220
0220
0220
0220
0220
0220
0220
0220
0220
ENDCHAR
STARTCHAR 00B7
ENCODING 183
SWIDTH 533 0
DWIDTH 16 0
BBX 2 2 7 10
BITMAP
C0
C0
ENDCHAR
STARTCHAR 00B8
ENCODING 184
SWIDTH 533 0
DWIDTH 16 0
BBX 5 5 4 -5
BITMAP
18
18
00
C0
C0
ENDCHAR
STARTCHAR 00B9
ENCODING 185
SWIDTH 433 0
DWIDTH 13 0
BBX 2 13 5 8
BITMAP
C0
40
C0
C0
C0
C0
C0
C0
C0
C0
C0
C0
C0
ENDCHAR
STARTCHAR 00BA
ENCODING 186
SWIDTH 366 0
DWIDTH 11 0
BBX 8 13 2 8
BITMAP
74
04
81
00
81
00
81
00
81
00
81
74
04
ENDCHAR
STARTCHAR 00BB
ENCODING 187
SWIDTH 733 0
DWIDTH 22 0
BBX 14 15 4 3
BITMAP
C180
C180
0100
0000
1830
1830
0200
060C
060C
0000
1830
1830
0100
C180
C180
ENDCHAR
STARTCHAR 00BC
ENCODING 188
SWIDTH 600 0
DWIDTH 18 0
BBX 16 21 1 0
BITMAP
6000
6000
6000
6000
6018
6018
6000
20C0
61C3
2383
6783
2783
6183
19D2
19FF
01FF
C003
C002
0003
0003
0003
ENDCHAR
STARTCHAR 00BD
ENCODING 189
SWIDTH 633 0
DWIDTH 19 0
BBX 16 21 1 0
BITMAP
6000
6000
6000
6018
6018
4000
60C0
61D0
61FC
43FC
6603
4603
6003
187C
187C
4110
C180
C180
0190
01FF
01FF
ENDCHAR
STARTCHAR 00BE
ENCODING 190
SWIDTH 700 0
DWIDTH 21 0
BBX 19 21 1 0
BITMAP
FE0000
FE0000
0B8000
018000
018300
0B8300
FF0000
EA1800
01B860
006040
01F060
FA7060
FF3060
0B3A60
033FE0
003FE0
180060
180060
000060
000060
000060
ENDCHAR
STARTCHAR 00BF
ENCODING 191
SWIDTH 500 0
DWIDTH 15 0
BBX 13 21 1 0
BITMAP
0600
0600
0000
0000
0000
0000
0600
0600
0000
1800
1800
0000
0000
C000
C000
0000
C018
C018
0000
1EC0
1EC0
ENDCHAR
STARTCHAR 00C0
ENCODING 192
SWIDTH 500 0
DWIDTH 15 0
BBX 13 27 1 0
BITMAP
1800
1800
0000
0600
0600
0000
1EC0
1EC0
0000
C018
C018
0000
C018
C018
0000
DED8
DED8
0000
0000
C018
C018
0000
C018
C018
0000
C018
C018
ENDCHAR
STARTCHAR 00C1
ENCODING 193
SWIDTH 500 0
DWIDTH 15 0
BBX 13 27 1 0
BITMAP
00C0
00C0
0000
0600
0600
0000
1EC0
1EC0
0000
C018
C018
0000
C018
C018
0000
DED8
DED8
0000
0000
C018
C018
0000
C018
C018
0000
C018
C018
ENDCHAR
STARTCHAR 00C2
ENCODING 194
SWIDTH 500 0
DWIDTH 15 0
BBX 13 27 1 0
BITMAP
0600
0600
0000
18C0
18C0
0000
1EC0
1EC0
0000
C018
C018
0000
C018
C018
0000
DED8
DED8
0000
0000
C018
C018
0000
C018
C018
0000
C018
C018
ENDCHAR
STARTCHAR 00C3
ENCODING 195
SWIDTH 500 0
DWIDTH 15 0
BBX 13 27 1 0
BITMAP
0618
0618
0000
18C0
18C0
0000
1EC0
1EC0
0000
C018
C018
0000
C018
C018
0000
DED8
DED8
0000
0000
C018
C018
0000
C018
C018
0000
C018
C018
ENDCHAR
STARTCHAR 00C4
ENCODING 196
SWIDTH 500 0
DWIDTH 15 0
BBX 13 27 1 0
BITMAP
18C0
18C0
0000
0000
0000
0000
1EC0
1EC0
0000
C018
C018
0000
C018
C018
0000
DED8
DED8
0000
0000
C018
C018
0000
C018
C018
0000
C018
C018
ENDCHAR
STARTCHAR 00C5
ENCODING 197
SWIDTH 500 0
DWIDTH 15 0
BBX 13 27 1 0
BITMAP
1EC0
1EC0
0000
C018
C018
0000
1EC0
1EC0
0000
C018
C018
0000
C018
C018
0000
DED8
DED8
0000
0000
C018
C018
0000
C018
C018
0000
C018
C018
ENDCHAR
STARTCHAR 00C6
ENCODING 198
SWIDTH 500 0
DWIDTH 15 0
BBX 13 21 1 0
BITMAP
1ED8
1ED8
0000
C600
C600
0000
C600
C600
0000
DED8
DED8
0000
0000
C600
C600
0000
C600
C600
0000
C6D8
C6D8
ENDCHAR
STARTCHAR 00C7
ENCODING 199
SWIDTH 500 0
DWIDTH 15 0
BBX 13 27 1 -6
BITMAP
1EC0
1EC0
0000
C018
C018
0000
C000
C000
0000
C000
C000
0000
0000
C000
C000
0000
C018
C018
0000
1EC0
1EC0
0000
0600
0600
0000
1800
1800
ENDCHAR
STARTCHAR 00C8
ENCODING 200
SWIDTH 500 0
DWIDTH 15 0
BBX 13 27 1 0
BITMAP
1800
1800
0000
0600
0600
0000
DED8
DED8
0000
C000
C000
0000
C000
C000
0000
DEC0
DEC0
0000
0000
C000
C000
0000
C000
C000
0000
DED8
DED8
ENDCHAR
STARTCHAR 00C9
ENCODING 201
SWIDTH 500 0
DWIDTH 15 0
BBX 13 27 1 0
BITMAP
00C0
00C0
0000
0600
0600
0000
DED8
DED8
0000
C000
C000
0000
C000
C000
0000
DEC0
DEC0
0000
0000
C000
C000
0000
C000
C000
0000
DED8
DED8
ENDCHAR
STARTCHAR 00CA
ENCODING 202
SWIDTH 500 0
DWIDTH 15 0
BBX 13 27 1 0
BITMAP
0600
0600
0000
18C0
18C0
0000
DED8
DED8
0000
C000
C000
0000
C000
C000
0000
DEC0
DEC0
0000
0000
C000
C000
0000
C000
C000
0000
DED8
DED8
ENDCHAR
STARTCHAR 00CB
ENCODING 203
SWIDTH 500 0
DWIDTH 15 0
BBX 13 27 1 0
BITMAP
18C0
18C0
0000
0000
0000
0000
DED8
DED8
0000
C000
C000
0000
C000
C000
0000
DEC0
DEC0
0000
0000
C000
C000
0000
C000
C000
0000
DED8
DED8
ENDCHAR
STARTCHAR 00CC
ENCODING 204
SWIDTH 533 0
DWIDTH 16 0
BBX 5 27 4 0
BITMAP
C0
C0
00
18
18
00
18
18
00
18
18
00
18
18
00
18
18
00
00
18
18
00
18
18
00
18
18
ENDCHAR
STARTCHAR 00CD
ENCODING 205
SWIDTH 533 0
DWIDTH 16 0
BBX 5 27 7 0
BITMAP
18
18
00
C0
C0
00
C0
C0
00
C0
C0
00
C0
C0
00
C0
C0
00
00
C0
C0
00
C0
C0
00
C0
C0
ENDCHAR
STARTCHAR 00CE
ENCODING 206
SWIDTH 533 0
DWIDTH 16 0
BBX 8 27 4 0
BITMAP
18
18
00
C2
C7
02
18
18
00
18
18
00
18
18
00
18
18
00
00
18
18
00
18
18
00
18
18
ENDCHAR
STARTCHAR 00CF
ENCODING 207
SWIDTH 533 0
DWIDTH 16 0
BBX 8 27 4 0
BITMAP
C2
C7
02
00
00
00
18
18
00
18
18
00
18
18
00
18
18
00
00
18
18
00
18
18
00
18
18
ENDCHAR
STARTCHAR 00D0
ENCODING 208
SWIDTH 633 0
DWIDTH 19 0
BBX 17 21 1 0
BITMAP
1BC800
1BCC00
000000
180300
180380
000100
180300
180380
000100
DB0300
DB0380
000100
000100
180380
180300
000100
180380
180300
000000
1BCC00
1BC800
ENDCHAR
STARTCHAR 00D1
ENCODING 209
SWIDTH 500 0
DWIDTH 15 0
BBX 13 27 1 0
BITMAP
0618
0618
0000
18C0
18C0
0000
C018
C018
0000
D818
D818
0000
C618
C618
0000
C0D8
C0D8
0000
0000
C018
C018
0000
C018
C018
0000
C018
C018
ENDCHAR
STARTCHAR 00D2
ENCODING 210
SWIDTH 500 0
DWIDTH 15 0
BBX 13 27 1 0
BITMAP
1800
1800
0000
0600
0600
0000
1EC0
1EC0
0000
C018
C018
0000
C018
C018
0000
C018
C018
0000
0000
C018
C018
0000
C018
C018
0000
1EC0
1EC0
ENDCHAR
STARTCHAR 00D3
ENCODING 211
SWIDTH 500 0
DWIDTH 15 0
BBX 13 27 1 0
BITMAP
00C0
00C0
0000
0600
0600
0000
1EC0
1EC0
0000
C018
C018
0000
C018
C018
0000
C018
C018
0000
0000
C018
C018
0000
C018
C018
0000
1EC0
1EC0
ENDCHAR
STARTCHAR 00D4
ENCODING 212
SWIDTH 500 0
DWIDTH 15 0
BBX 13 27 1 0
BITMAP
0600
0600
0000
18C0
18C0
0000
1EC0
1EC0
0000
C018
C018
0000
C018
C018
0000
C018
C018
0000
0000
C018
C018
0000
C018
C018
0000
1EC0
1EC0
ENDCHAR
STARTCHAR 00D5
ENCODING 213
SWIDTH 500 0
DWIDTH 15 0
BBX 13 27 1 0
BITMAP
0618
0618
0000
18C0
18C0
0000
1EC0
1EC0
0000
C018
C018
0000
C018
C018
0000
C018
C018
0000
0000
C018
C018
0000
C018
C018
0000
1EC0
1EC0
ENDCHAR
STARTCHAR 00D6
ENCODING 214
SWIDTH 500 0
DWIDTH 15 0
BBX 13 27 1 0
BITMAP
18C0
18C0
0000
0000
0000
0000
1EC0
1EC0
0000
C018
C018
0000
C018
C018
0000
C018
C018
0000
0000
C018
C018
0000
C018
C018
0000
1EC0
1EC0
ENDCHAR
STARTCHAR 00D7
ENCODING 215
SWIDTH 500 0
DWIDTH 15 0
BBX 9 9 3 5
BITMAP
C180
E380
7700
3E00
1C00
3E00
7700
E380
C180
ENDCHAR
STARTCHAR 00D8
ENCODING 216
SWIDTH 500 0
DWIDTH 15 0
BBX 13 21 1 0
BITMAP
1EC0
1EC0
0000
C018
C018
0000
C0D8
C0D8
0000
C618
C618
0000
0000
D818
D818
0000
C018
C018
0000
1EC0
1EC0
ENDCHAR
STARTCHAR 00D9
ENCODING 217
SWIDTH 500 0
DWIDTH 15 0
BBX 13 27 1 0
BITMAP
1800
1800
0000
0600
0600
0000
C018
C018
0000
C018
C018
0000
C018
C018
0000
C018
C018
0000
0000
C018
C018
0000
C018
C018
0000
1EC0
1EC0
ENDCHAR
STARTCHAR 00DA
ENCODING 218
SWIDTH 500 0
DWIDTH 15 0
BBX 13 27 1 0
BITMAP
00C0
00C0
0000
0600
0600
0000
C018
C018
0000
C018
C018
0000
C018
C018
0000
C018
C018
0000
0000
C018
C018
0000
C018
C018
0000
1EC0
1EC0
ENDCHAR
STARTCHAR 00DB
ENCODING 219
SWIDTH 500 0
DWIDTH 15 0
BBX 13 27 1 0
BITMAP
0600
0600
0000
18C0
18C0
0000
C018
C018
0000
C018
C018
0000
C018
C018
0000
C018
C018
0000
0000
C018
C018
0000
C018
C018
0000
1EC0
1EC0
ENDCHAR
STARTCHAR 00DC
ENCODING 220
SWIDTH 500 0
DWIDTH 15 0
BBX 13 27 1 0
BITMAP
18C0
18C0
0000
0000
0000
0000
C018
C018
0000
C018
C018
0000
C018
C018
0000
C018
C018
0000
0000
C018
C018
0000
C018
C018
0000
1EC0
1EC0
ENDCHAR
STARTCHAR 00DD
ENCODING 221
SWIDTH 500 0
DWIDTH 15 0
BBX 13 27 1 0
BITMAP
00C0
00C0
0000
0600
0600
0000
C018
C018
0000
C018
C018
0000
C018
C018
0000
18C0
18C0
0000
0000
0600
0600
0000
0600
0600
0000
0600
0600
ENDCHAR
STARTCHAR 00DE
ENCODING 222
SWIDTH 500 0
DWIDTH 15 0
BBX 13 21 1 0
BITMAP
C000
C000
0000
DEC0
DEC0
0000
C018
C018
0000
C018
C018
0000
0000
C018
C018
0000
DEC0
DEC0
0000
C000
C000
ENDCHAR
STARTCHAR 00DF
ENCODING 223
SWIDTH 1033 0
DWIDTH 31 0
BBX 29 21 1 0
BITMAP
1EC01EC0
1EC01EC0
00000000
C018C018
C018C018
00000000
C000C000
C000C000
00000000
1EC01EC0
1EC01EC0
00000000
00000000
00180018
00180018
00000000
C018C018
C018C018
00000000
1EC01EC0
1EC01EC0
ENDCHAR
STARTCHAR 00E0
ENCODING 224
SWIDTH 500 0
DWIDTH 15 0
BBX 13 27 1 0
BITMAP
1800
1800
0000
0600
0600
0000
1EC0
1EC0
0000
C018
C018
0000
C018
C018
0000
DED8
DED8
0000
0000
C018
C018
0000
C018
C018
0000
C018
C018
ENDCHAR
STARTCHAR 00E1
ENCODING 225
SWIDTH 500 0
DWIDTH 15 0
BBX 13 27 1 0
BITMAP
00C0
00C0
0000
0600
0600
0000
1EC0
1EC0
0000
C018
C018
0000
C018
C018
0000
DED8
DED8
0000
0000
C018
C018
0000
C018
C018
0000
C018
C018
ENDCHAR
STARTCHAR 00E2
ENCODING 226
SWIDTH 500 0
DWIDTH 15 0
BBX 13 27 1 0
BITMAP
0600
0600
0000
18C0
18C0
0000
1EC0
1EC0
0000
C018
C018
0000
C018
C018
0000
DED8
DED8
0000
0000
C018
C018
0000
C018
C018
0000
C018
C018
ENDCHAR
STARTCHAR 00E3
ENCODING 227
SWIDTH 500 0
DWIDTH 15 0
BBX 13 27 1 0
BITMAP
0618
0618
0000
18C0
18C0
0000
1EC0
1EC0
0000
C018
C018
0000
C018
C018
0000
DED8
DED8
0000
0000
C018
C018
0000
C018
C018
0000
C018
C018
ENDCHAR
STARTCHAR 00E4
ENCODING 228
SWIDTH 500 0
DWIDTH 15 0
BBX 13 27 1 0
BITMAP
18C0
18C0
0000
0000
0000
0000
1EC0
1EC0
0000
C018
C018
0000
C018
C018
0000
DED8
DED8
0000
0000
C018
C018
0000
C018
C018
0000
C018
C018
ENDCHAR
STARTCHAR 00E5
ENCODING 229
SWIDTH 500 0
DWIDTH 15 0
BBX 13 27 1 0
BITMAP
1EC0
1EC0
0000
C018
C018
0000
1EC0
1EC0
0000
C018
C018
0000
C018
C018
0000
DED8
DED8
0000
0000
C018
C018
0000
C018
C018
0000
C018
C018
ENDCHAR
STARTCHAR 00E6
ENCODING 230
SWIDTH 500 0
DWIDTH 15 0
BBX 13 21 1 0
BITMAP
1ED8
1ED8
0000
C600
C600
0000
C600
C600
0000
DED8
DED8
0000
0000
C600
C600
0000
C600
C600
0000
C6D8
C6D8
ENDCHAR
STARTCHAR 00E7
ENCODING 231
SWIDTH 500 0
DWIDTH 15 0
BBX 13 27 1 -6
BITMAP
1EC0
1EC0
0000
C018
C018
0000
C000
C000
0000
C000
C000
0000
0000
C000
C000
0000
C018
C018
0000
1EC0
1EC0
0000
0600
0600
0000
1800
1800
ENDCHAR
STARTCHAR 00E8
ENCODING 232
SWIDTH 500 0
DWIDTH 15 0
BBX 13 27 1 0
BITMAP
1800
1800
0000
0600
0600
0000
DED8
DED8
0000
C000
C000
0000
C000
C000
0000
DEC0
DEC0
0000
0000
C000
C000
0000
C000
C000
0000
DED8
DED8
ENDCHAR
STARTCHAR 00E9
ENCODING 233
SWIDTH 500 0
DWIDTH 15 0
BBX 13 27 1 0
BITMAP
00C0
00C0
0000
0600
0600
0000
DED8
DED8
0000
C000
C000
0000
C000
C000
0000
DEC0
DEC0
0000
0000
C000
C000
0000
C000
C000
0000
DED8
DED8
ENDCHAR
STARTCHAR 00EA
ENCODING 234
SWIDTH 500 0
DWIDTH 15 0
BBX 13 27 1 0
BITMAP
0600
0600
0000
18C0
18C0
0000
DED8
DED8
0000
C000
C000
0000
C000
C000
0000
DEC0
DEC0
0000
0000
C000
C000
0000
C000
C000
0000
DED8
DED8
ENDCHAR
STARTCHAR 00EB
ENCODING 235
SWIDTH 500 0
DWIDTH 15 0
BBX 13 27 1 0
BITMAP
18C0
18C0
0000
0000
0000
0000
DED8
DED8
0000
C000
C000
0000
C000
C000
0000
DEC0
DEC0
0000
0000
C000
C000
0000
C000
C000
0000
DED8
DED8
ENDCHAR
STARTCHAR 00EC
ENCODING 236
SWIDTH 533 0
DWIDTH 16 0
BBX 5 27 4 0
BITMAP
C0
C0
00
18
18
00
18
18
00
18
18
00
18
18
00
18
18
00
00
18
18
00
18
18
00
18
18
ENDCHAR
STARTCHAR 00ED
ENCODING 237
SWIDTH 533 0
DWIDTH 16 0
BBX 5 27 7 0
BITMAP
18
18
00
C0
C0
00
C0
C0
00
C0
C0
00
C0
C0
00
C0
C0
00
00
C0
C0
00
C0
C0
00
C0
C0
ENDCHAR
STARTCHAR 00EE
ENCODING 238
SWIDTH 533 0
DWIDTH 16 0
BBX 8 27 4 0
BITMAP
18
18
00
C2
C7
02
18
18
00
18
18
00
18
18
00
18
18
00
00
18
18
00
18
18
00
18
18
ENDCHAR
STARTCHAR 00EF
ENCODING 239
SWIDTH 533 0
DWIDTH 16 0
BBX 8 27 4 0
BITMAP
C2
C7
02
00
00
00
18
18
00
18
18
00
18
18
00
18
18
00
00
18
18
00
18
18
00
18
18
ENDCHAR
STARTCHAR 00F0
ENCODING 240
SWIDTH 633 0
DWIDTH 19 0
BBX 17 21 1 0
BITMAP
1BC800
1BCC00
000000
180300
180380
000100
180300
180380
000100
DB0300
DB0380
000100
000100
180380
180300
000100
180380
180300
000000
1BCC00
1BC800
ENDCHAR
STARTCHAR 00F1
ENCODING 241
SWIDTH 500 0
DWIDTH 15 0
BBX 13 27 1 0
BITMAP
0618
0618
0000
18C0
18C0
0000
C018
C018
0000
D818
D818
0000
C618
C618
0000
C0D8
C0D8
0000
0000
C018
C018
0000
C018
C018
0000
C018
C018
ENDCHAR
STARTCHAR 00F2
ENCODING 242
SWIDTH 500 0
DWIDTH 15 0
BBX 13 27 1 0
BITMAP
1800
1800
0000
0600
0600
0000
1EC0
1EC0
0000
C018
C018
0000
C018
C018
0000
C018
C018
0000
0000
C018
C018
0000
C018
C018
0000
1EC0
1EC0
ENDCHAR
STARTCHAR 00F3
ENCODING 243
SWIDTH 500 0
DWIDTH 15 0
BBX 13 27 1 0
BITMAP
00C0
00C0
0000
0600
0600
0000
1EC0
1EC0
0000
C018
C018
0000
C018
C018
0000
C018
C018
0000
0000
C018
C018
0000
C018
C018
0000
1EC0
1EC0
ENDCHAR
STARTCHAR 00F4
ENCODING 244
SWIDTH 500 0
DWIDTH 15 0
BBX 13 27 1 0
BITMAP
0600
0600
0000
18C0
18C0
0000
1EC0
1EC0
0000
C018
C018
0000
C018
C018
0000
C018
C018
0000
0000
C018
C018
0000
C018
C018
0000
1EC0
1EC0
ENDCHAR
STARTCHAR 00F5
ENCODING 245
SWIDTH 500 0
DWIDTH 15 0
BBX 13 27 1 0
BITMAP
0618
0618
0000
18C0
18C0
0000
1EC0
1EC0
0000
C018
C018
0000
C018
C018
0000
C018
C018
0000
0000
C018
C018
0000
C018
C018
0000
1EC0
1EC0
ENDCHAR
STARTCHAR 00F6
ENCODING 246
SWIDTH 500 0
DWIDTH 15 0
BBX 13 27 1 0
BITMAP
18C0
18C0
0000
0000
0000
0000
1EC0
1EC0
0000
C018
C018
0000
C018
C018
0000
C018
C018
0000
0000
C018
C018
0000
C018
C018
0000
1EC0
1EC0
ENDCHAR
STARTCHAR 00F7
ENCODING 247
SWIDTH 466 0
DWIDTH 14 0
BBX 12 14 1 3
BITMAP
0200
0700
0700
0200
0000
0000
FFF0
FFF0
FFF0
0000
0200
0700
0700
0200
ENDCHAR
STARTCHAR 00F8
ENCODING 248
SWIDTH 500 0
DWIDTH 15 0
BBX 13 21 1 0
BITMAP
1EC0
1EC0
0000
C018
C018
0000
C0D8
C0D8
0000
C618
C618
0000
0000
D818
D818
0000
C018
C018
0000
1EC0
1EC0
ENDCHAR
STARTCHAR 00F9
ENCODING 249
SWIDTH 500 0
DWIDTH 15 0
BBX 13 27 1 0
BITMAP
1800
1800
0000
0600
0600
0000
C018
C018
0000
C018
C018
0000
C018
C018
0000
C018
C018
0000
0000
C018
C018
0000
C018
C018
0000
1EC0
1EC0
ENDCHAR
STARTCHAR 00FA
ENCODING 250
SWIDTH 500 0
DWIDTH 15 0
BBX 13 27 1 0
BITMAP
00C0
00C0
0000
0600
0600
0000
C018
C018
0000
C018
C018
0000
C018
C018
0000
C018
C018
0000
0000
C018
C018
0000
C018
C018
0000
1EC0
1EC0
ENDCHAR
STARTCHAR 00FB
ENCODING 251
SWIDTH 500 0
DWIDTH 15 0
BBX 13 27 1 0
BITMAP
0600
0600
0000
18C0
18C0
0000
C018
C018
0000
C018
C018
0000
C018
C018
0000
C018
C018
0000
0000
C018
C018
0000
C018
C018
0000
1EC0
1EC0
ENDCHAR
STARTCHAR 00FC
ENCODING 252
SWIDTH 500 0
DWIDTH 15 0
BBX 13 27 1 0
BITMAP
18C0
18C0
0000
0000
0000
0000
C018
C018
0000
C018
C018
0000
C018
C018
0000
C018
C018
0000
0000
C018
C018
0000
C018
C018
0000
1EC0
1EC0
ENDCHAR
STARTCHAR 00FD
ENCODING 253
SWIDTH 500 0
DWIDTH 15 0
BBX 13 27 1 0
BITMAP
00C0
00C0
0000
0600
0600
0000
C018
C018
0000
C018
C018
0000
C018
C018
0000
18C0
18C0
0000
0000
0600
0600
0000
0600
0600
0000
0600
0600
ENDCHAR
STARTCHAR 00FE
ENCODING 254
SWIDTH 500 0
DWIDTH 15 0
BBX 13 21 1 0
BITMAP
C000
C000
0000
DEC0
DEC0
0000
C018
C018
0000
C018
C018
0000
0000
C018
C018
0000
DEC0
DEC0
0000
C000
C000
ENDCHAR
STARTCHAR 00FF
ENCODING 255
SWIDTH 500 0
DWIDTH 15 0
BBX 13 27 1 0
BITMAP
18C0
18C0
0000
0000
0000
0000
C018
C018
0000
C018
C018
0000
C018
C018
0000
18C0
18C0
0000
0000
0600
0600
0000
0600
0600
0000
0600
0600
ENDCHAR
STARTCHAR 0131
ENCODING 305
SWIDTH 533 0
DWIDTH 16 0
BBX 2 21 7 0
BITMAP
C0
C0
00
C0
C0
00
C0
C0
00
C0
C0
00
00
C0
C0
00
C0
C0
00
C0
C0
ENDCHAR
STARTCHAR 02C6
ENCODING 710
SWIDTH 533 0
DWIDTH 16 0
BBX 8 5 4 23
BITMAP
18
18
02
C7
C2
ENDCHAR
STARTCHAR 02C7
ENCODING 711
SWIDTH 533 0
DWIDTH 16 0
BBX 8 6 4 22
BITMAP
02
C7
C2
00
18
18
ENDCHAR
STARTCHAR 02C9
ENCODING 713
SWIDTH 533 0
DWIDTH 16 0
BBX 8 3 4 22
BITMAP
02
DF
DA
ENDCHAR
STARTCHAR 02D8
ENCODING 728
SWIDTH 533 0
DWIDTH 16 0
BBX 10 5 4 23
BITMAP
C0C0
C0C0
0000
1E00
1E00
ENDCHAR
STARTCHAR 02D9
ENCODING 729
SWIDTH 533 0
DWIDTH 16 0
BBX 2 2 7 26
BITMAP
C0
C0
ENDCHAR
STARTCHAR 02DA
ENCODING 730
SWIDTH 500 0
DWIDTH 15 0
BBX 13 5 1 23
BITMAP
1EC0
1EC0
0000
C018
C018
ENDCHAR
STARTCHAR 02DB
ENCODING 731
SWIDTH 533 0
DWIDTH 16 0
BBX 8 5 8 -5
BITMAP
C0
C0
02
1F
1A
ENDCHAR
STARTCHAR 02DC
ENCODING 732
SWIDTH 533 0
DWIDTH 16 0
BBX 10 5 4 23
BITMAP
18C0
18C0
0000
C600
C600
ENDCHAR
STARTCHAR 02DD
ENCODING 733
SWIDTH 500 0
DWIDTH 15 0
BBX 10 5 3 23
BITMAP
18C0
18C0
0000
C600
C600
ENDCHAR
STARTCHAR 037E
ENCODING 894
SWIDTH 533 0
DWIDTH 16 0
BBX 5 12 4 3
BITMAP
18
18
00
00
00
00
00
18
18
00
C0
C0
ENDCHAR
STARTCHAR 2013
ENCODING 8211
SWIDTH 500 0
DWIDTH 15 0
BBX 13 2 1 10
BITMAP
DED8
DED8
ENDCHAR
STARTCHAR 2014
ENCODING 8212
SWIDTH 500 0
DWIDTH 15 0
BBX 13 2 1 10
BITMAP
DED8
DED8
ENDCHAR
STARTCHAR 2018
ENCODING 8216
SWIDTH 533 0
DWIDTH 16 0
BBX 5 11 7 10
BITMAP
D8
D8
00
D8
D8
00
18
18
00
C0
C0
ENDCHAR
STARTCHAR 2019
ENCODING 8217
SWIDTH 533 0
DWIDTH 16 0
BBX 5 11 7 10
BITMAP
D8
D8
00
D8
D8
00
18
18
00
C0
C0
ENDCHAR
STARTCHAR 201A
ENCODING 8218
SWIDTH 533 0
DWIDTH 16 0
BBX 5 12 7 0
BITMAP
D8
D8
00
00
D8
D8
00
18
18
00
C0
C0
ENDCHAR
STARTCHAR 201C
ENCODING 8220
SWIDTH 500 0
DWIDTH 15 0
BBX 7 5 4 16
BITMAP
C6
C6
00
C6
C6
ENDCHAR
STARTCHAR 201D
ENCODING 8221
SWIDTH 500 0
DWIDTH 15 0
BBX 7 5 4 16
BITMAP
C6
C6
00
C6
C6
ENDCHAR
STARTCHAR 201E
ENCODING 8222
SWIDTH 500 0
DWIDTH 15 0
BBX 7 5 4 1
BITMAP
C6
C6
00
C6
C6
ENDCHAR
STARTCHAR 2020
ENCODING 8224
SWIDTH 533 0
DWIDTH 16 0
BBX 12 25 2 -4
BITMAP
0F00
0F00
0E00
0600
C470
FDF0
F7F0
C470
0400
0E00
0F00
0F00
0E00
0E00
0E00
0600
0600
0600
0400
0400
0400
0400
0400
0400
0400
ENDCHAR
STARTCHAR 2021
ENCODING 8225
SWIDTH 533 0
DWIDTH 16 0
BBX 12 25 2 -4
BITMAP
0F00
0F00
0E00
0600
C470
F5F0
FFF0
C470
0400
0400
0600
0E00
0F00
0E00
0600
0400
0400
C470
F5F0
FFF0
C470
0600
0E00
0F00
0F00
ENDCHAR
STARTCHAR 2022
ENCODING 8226
SWIDTH 500 0
DWIDTH 15 0
BBX 9 9 3 6
BITMAP
3E00
7F00
FF80
FF80
FF80
FF80
FF80
7F00
3E00
ENDCHAR
STARTCHAR 2026
ENCODING 8230
SWIDTH 500 0
DWIDTH 15 0
BBX 12 2 1 1
BITMAP
C630
C630
ENDCHAR
STARTCHAR 2039
ENCODING 8249
SWIDTH 533 0
DWIDTH 16 0
BBX 8 15 4 3
BITMAP
02
07
02
00
18
18
00
C0
C0
00
18
18
02
07
02
ENDCHAR
STARTCHAR 203A
ENCODING 8250
SWIDTH 533 0
DWIDTH 16 0
BBX 8 15 4 3
BITMAP
C0
C0
00
00
18
18
02
07
02
00
18
18
00
C0
C0
ENDCHAR
STARTCHAR 2044
ENCODING 8260
SWIDTH 500 0
DWIDTH 15 0
BBX 13 15 1 3
BITMAP
0018
0018
0000
0000
00C0
00C0
0000
0600
0600
0000
1800
1800
0000
C000
C000
ENDCHAR
STARTCHAR 20A3
ENCODING 8355
SWIDTH 1033 0
DWIDTH 31 0
BBX 29 21 1 0
BITMAP
DED8DEC0
DED8DEC0
00000000
C000C018
C000C018
00000000
C000C018
C000C018
00000000
DEC0DEC0
DEC0DEC0
00000000
00000000
C000C600
C000C600
00000000
C000C0C0
C000C0C0
00000000
C000C018
C000C018
ENDCHAR
STARTCHAR 20A4
ENCODING 8356
SWIDTH 500 0
DWIDTH 15 0
BBX 13 21 1 0
BITMAP
06C0
06C0
0000
1818
1818
0000
DE00
DE00
0000
1800
1800
0000
4000
DE00
DE00
0000
1800
1800
0000
DED8
DED8
ENDCHAR
STARTCHAR 20A7
ENCODING 8359
SWIDTH 1566 0
DWIDTH 47 0
BBX 45 21 1 0
BITMAP
DEC0DED81EC0
DEC0DED81EC0
000000000000
C0180600C018
C0180600C018
000000000000
C0180600C000
C0180600C000
000000000000
DEC006001EC0
DEC006001EC0
000000000000
000000000000
C00006000018
C00006000018
000000000000
C0000600C018
C0000600C018
000000000000
C00006001EC0
C00006001EC0
ENDCHAR
STARTCHAR 20AC
ENCODING 8364
SWIDTH 633 0
DWIDTH 19 0
BBX 17 21 1 0
BITMAP
03C800
03CC00
000000
180300
180380
000100
DB0000
DB0000
000000
180000
180000
000000
000000
DB0000
DB0000
000100
180380
180300
000000
03CC00
03C800
ENDCHAR
STARTCHAR 2116
ENCODING 8470
SWIDTH 900 0
DWIDTH 27 0
BBX 24 21 2 0
BITMAP
C01874
C01800
000183
D01800
F81881
100000
C61881
C61800
861081
00C081
C0D881
C0D854
000034
C01800
C01800
000000
C01800
C01800
000000
C01800
C01800
ENDCHAR
STARTCHAR 2122
ENCODING 8482
SWIDTH 500 0
DWIDTH 15 0
BBX 10 8 3 13
BITMAP
F840
48C0
4040
0000
4040
4840
4840
4040
ENDCHAR
STARTCHAR 2202
ENCODING 8706
SWIDTH 500 0
DWIDTH 15 0
BBX 12 23 1 -1
BITMAP
3000
0C00
0200
0100
0080
00C0
0040
0660
19A0
20E0
6070
4070
C070
C030
C030
C030
C030
E030
6030
6060
3040
1880
0700
ENDCHAR
STARTCHAR 2206
ENCODING 8710
SWIDTH 533 0
DWIDTH 16 0
BBX 16 20 0 1
BITMAP
0180
0180
0180
02C0
02C0
0440
0460
0460
0830
0830
1010
1018
1018
2008
200C
200C
4004
4006
7FFE
FFFF
ENDCHAR
STARTCHAR 220F
ENCODING 8719
SWIDTH 733 0
DWIDTH 22 0
BBX 21 27 1 -6
BITMAP
FFFFF8
3C01C0
1801C0
1801C0
1801C0
1801C0
1801C0
1801C0
1801C0
1801C0
1801C0
1801C0
1801C0
1801C0
1801C0
1801C0
1801C0
1801C0
1801C0
1801C0
1801C0
1801C0
1801C0
1801C0
1801C0
3C01C0
FF0FF8
ENDCHAR
STARTCHAR 2211
ENCODING 8721
SWIDTH 600 0
DWIDTH 18 0
BBX 14 27 2 -6
BITMAP
FFF8
7804
3804
1C00
0E00
0F00
0780
0380
01C0
01E0
00F0
0070
0038
0018
0010
0020
0040
00C0
0180
0300
0200
0400
0800
1000
2004
6004
FFF8
ENDCHAR
STARTCHAR 2212
ENCODING 8722
SWIDTH 533 0
DWIDTH 16 0
BBX 13 3 2 9
BITMAP
D6D8
FED8
1000
ENDCHAR
STARTCHAR 2215
ENCODING 8725
SWIDTH 500 0
DWIDTH 15 0
BBX 13 15 1 3
BITMAP
0018
0018
0000
0000
00C0
00C0
0000
0600
0600
0000
1800
1800
0000
C000
C000
ENDCHAR
STARTCHAR 2219
ENCODING 8729
SWIDTH 533 0
DWIDTH 16 0
BBX 2 2 7 10
BITMAP
C0
C0
ENDCHAR
STARTCHAR 221A
ENCODING 8730
SWIDTH 500 0
DWIDTH 15 0
BBX 15 24 0 0
BITMAP
0006
0004
000C
0008
0018
0010
0030
0020
0060
0040
00C0
0080
0180
0100
0300
0200
0600
0400
0C00
C800
5800
7000
3000
2000
ENDCHAR
STARTCHAR 221E
ENCODING 8734
SWIDTH 500 0
DWIDTH 15 0
BBX 13 11 1 5
BITMAP
00E0
31F0
7B10
C608
8408
8408
8408
8408
7A30
31F0
00E0
ENDCHAR
STARTCHAR 222B
ENCODING 8747
SWIDTH 333 0
DWIDTH 10 0
BBX 12 29 -1 -4
BITMAP
0070
00F0
0090
0100
0100
0300
0300
0200
0200
0600
0600
0600
0600
0600
0600
0600
0600
0600
0400
0C00
0C00
0C00
0C00
0C00
0800
0800
9000
D000
E000
ENDCHAR
STARTCHAR 2248
ENCODING 8776
SWIDTH 500 0
DWIDTH 15 0
BBX 13 10 1 5
BITMAP
0008
7E18
FFF0
C1E0
0000
0008
7E18
FFF0
C1E0
8000
ENDCHAR
STARTCHAR 2264
ENCODING 8804
SWIDTH 500 0
DWIDTH 15 0
BBX 12 18 1 0
BITMAP
0010
0070
00F0
03C0
0F00
3E00
7800
E000
7800
3E00
0F00
03C0
00F0
0070
0010
0000
FFF0
FFF0
ENDCHAR
STARTCHAR 2265
ENCODING 8805
SWIDTH 500 0
DWIDTH 15 0
BBX 12 18 1 0
BITMAP
8000
E000
F800
3C00
0F00
03C0
01F0
0070
01F0
03C0
0F00
3C00
F800
E000
8000
0000
FFF0
FFF0
ENDCHAR
STARTCHAR F001
ENCODING 61441
SWIDTH 1000 0
DWIDTH 30 0
BBX 23 21 1 0
BITMAP
DEF004
DEF006
002000
C00004
C00006
000000
C00004
C00006
000000
DEC004
DEC006
000000
000000
C00006
C00004
000000
C00006
C00004
000000
C00006
C00004
ENDCHAR
STARTCHAR F002
ENCODING 61442
SWIDTH 1033 0
DWIDTH 31 0
BBX 29 21 1 0
BITMAP
DED8C000
DED8C000
00000000
C000C000
C000C000
00000000
C000C000
C000C000
00000000
DEC0C000
DEC0C000
00000000
00000000
C000C000
C000C000
00000000
C000C000
C000C000
00000000
C000DED8
C000DED8
ENDCHAR
STARTCHAR FB01
ENCODING 64257
SWIDTH 1000 0
DWIDTH 30 0
BBX 23 21 1 0
BITMAP
DEF004
DEF006
002000
C00004
C00006
000000
C00004
C00006
000000
DEC004
DEC006
000000
000000
C00006
C00004
000000
C00006
C00004
000000
C00006
C00004
ENDCHAR
STARTCHAR FB02
ENCODING 64258
SWIDTH 1033 0
DWIDTH 31 0
BBX 29 21 1 0
BITMAP
DED8C000
DED8C000
00000000
C000C000
C000C000
00000000
C000C000
C000C000
00000000
DEC0C000
DEC0C000
00000000
00000000
C000C000
C000C000
00000000
C000C000
C000C000
00000000
C000DED8
C000DED8
ENDCHAR
ENDFONT
